/* XPM */
static char *sample_mask[] = {
/* columns rows colors chars-per-pixel */
"48 48 3 1",
"  c Black",
". c Gray100",
"X c None",
/* pixels */
"................................................",
"................................................",
"..XXXXXXXXXXXXXXXXXXXXXXXXXXXXXXXXXXXXXXXXXXXX..",
"..XXXXXXXXXXXXXXXXXXXXXXXXXXXXXXXXXXXXXXXXXXXX..",
"..XXXXXXXXXXXXXXXXXXXXXXXXXXXXXXXXXXXXXXXXXXXX..",
"..XXXXXXXXXXXXXXXXXXXXXXXXXXXXXXXXXXXXXXXXXXXX..",
"..XXXXXXXXXXXXXXXXXXXXXXXXXXXXXXXXXXXXXXXXXXXX..",
"..XXXXXXXXXXXXXXXXXXXXXXXXXXXXXXXXXXXXXXXXXXXX..",
"..XXXXXXXXXXXXXXXXXXXXXXXXXXXXXXXXXXXXXXXXXXXX..",
"..XXXXXXXXXXXXXXXXXXXXXXXXXXXXXXXXXXXXXXXXXXXX..",
"..XXXXXXXXXXXXXXXXXXXXXXXXXXXXXXXXXXXXXXXXXXXX..",
"..XXXXXXXXXXXXXXXXXXXXXXXXXXXXXXXXXXXXXXXXXXXX..",
"..XXXXXXXXXXXXXXXXXXXXXXXXXXXXXXXXXXXXXXXXXXXX..",
"................................................",
"................................................",
"XXXXXXXXXXXXXXXXXXXXXXXXXXXXXXXXXXXXXXXXXXXXXXXX",
"XXXXXXXXXXXXXXXXXXXXXXXXXXXXXXXXXXXXXXXXXXXXXXXX",
".............XXXXXXXXXXXXXXXXXXXXXX.............",
".............XXXXXXXXXXXXXXXXXXXXXX.............",
".............XXXXXXXXXXXXXXXXXXXXXX.............",
".............XXXXXXXXXXXXXXXXXXXXXX.............",
".............XXXXXXXXXXXXXXXXXXXXXX.............",
".............XXXXXXXXXXXXXXXXXXXXXX.............",
".............XXXXXXXXXXXXXXXXXXXXXX.............",
".............XXXXXXXXXXXXXXXXXXXXXX.............",
".............XXXXXXXXXXXXXXXXXXXXXX.............",
".............XXXXXXXXXXXXXXXXXXXXXX.............",
".............XXXXXXXXXXXXXXXXXXXXXX.............",
".............XXXXXXXXXXXXXXXXXXXXXX.............",
".............XXXXXXXXXXXXXXXXXXXXXX.............",
"XXXXXXXXXXXXXXXXXXXXXXXXXXXXXXXXXXXXXXXXXXXXXXXX",
"XXXXXXXXXXXXXXXXXXXXXXXXXXXXXXXXXXXXXXXXXXXXXXXX",
"XXXXXXXXXXXXXXXXXXXXXXXXXXXXXXXXXXXXXXXXXXXXXXXX",
"XXXXXXXXXXXXXX....................XXXXXXXXXXXXXX",
".............X....................X.............",
".............X..XXXXXXXXXXXXXXXX..X.............",
".............X..XXXXXXXXXXXXXXXX..X.............",
".............X..XXXXXXXXXXXXXXXX..X.............",
".............X..XXXXXXXXXXXXXXXX..X.............",
".............X..XXXXXXXXXXXXXXXX..X.............",
".............X..XXXXXXXXXXXXXXXX..X.............",
".............X..XXXXXXXXXXXXXXXX..X.............",
".............X..XXXXXXXXXXXXXXXX..X.............",
".............X..XXXXXXXXXXXXXXXX..X.............",
".............X..XXXXXXXXXXXXXXXX..X.............",
".............X..XXXXXXXXXXXXXXXX..X.............",
".............X....................X.............",
"XXXXXXXXXXXXXX....................XXXXXXXXXXXXXX"
};
