/* XPM */
static char * cdplaying[] = {
"48 48 7 1",
" 	c #631863186318",
".	c #318C318C318C",
"X	c #9CE69CE69CE6",
"o	c #000000000000",
"O	c #CE72CE72CE72",
"+	c none",
"@	c #0000FFFF0000 s led_color_high",
"                                                ",
" ..............................................X",
" .ooooooooooooooooooooooooooooooooooooooooooooXX",
" .ooooooooooooooooooooooooooooooooooooooooooooXX",
" .ooooooooooooooooooooooooooooooooooooooooooooXX",
" .ooooooooooooooooooooooooooooooooooooooooooooXX",
" .ooooooooooooooooooooooooooooooooooooooooooooXX",
" .ooooooooooooooooooooooooooooooooooooooooooooXX",
" .ooooooooooooooooooooooooooooooooooooooooooooXX",
" .ooooooooooooooooooooooooooooooooooooooooooooXX",
" .ooooooooooooooooooooooooooooooooooooooooooooXX",
" .ooooooooooooooooooooooooooooooooooooooooooooXX",
" .ooooooooooooooooooooooooooooooooooooooooooooXX",
" .XXXXXXXXXXXXXXXXXXXXXXXXXXXXXXXXXXXXXXXXXXXXXX",
" OOOOOOOOOOOOOOOOOOOOOOOOOOOOOOOOOOOOOOOOOOOOOOO",
"++++++++++++++++++++++++++++++++++++++++++++++++",
"++++++++++++++++++++++++++++++++++++++++++++++++",
"OOOOOOOOOOOOO++++++++++++++++++++++OOOOOOOOOOOOO",
"OXXXXXXXXXXXo++++++++++++++++++++++OXXXXXXXXXXXo",
"OX         .o++++++++++++++++++++++OX         .o",
"OX         .o++++++++++++++++++++++OX         .o",
"OX  @@ @@  .o++++++++++++++++++++++OX  @@@@@  .o",
"OX  @@ @@  .o++++++++++++++++++++++OX  @@@@@  .o",
"OX  @@ @@  .o++++++++++++++++++++++OX  @@@@@  .o",
"OX  @@ @@  .o++++++++++++++++++++++OX  @@@@@  .o",
"OX  @@ @@  .o++++++++++++++++++++++OX  @@@@@  .o",
"OX         .o++++++++++++++++++++++OX         .o",
"OX         .o++++++++++++++++++++++OX         .o",
"OX..........o++++++++++++++++++++++OX..........o",
"Ooooooooooooo++++++++++++++++++++++Ooooooooooooo",
"++++++++++++++++++++++++++++++++++++++++++++++++",
"++++++++++++++++++++++++++++++++++++++++++++++++",
"++++++++++++++++++++++++++++++++++++++++++++++++",
"++++++++++++++                    ++++++++++++++",
"OOOOOOOOOOOOO+ ..................X+OOOOOOOOOOOOO",
"OXXXXXXXXXXXo+ .ooooooooooooooooXX+OXXXXXXXXXXXo",
"OX         .o+ .ooooooooooooooooXX+OX         .o",
"OX         .o+ .ooooooooooooooooXX+OX         .o",
"OX  @   @  .o+ .ooooooooooooooooXX+OX  @   @  .o",
"OX  @ @@@  .o+ .ooooooooooooooooXX+OX  @@@ @  .o",
"OX  @@@@@  .o+ .ooooooooooooooooXX+OX  @@@@@  .o",
"OX  @ @@@  .o+ .ooooooooooooooooXX+OX  @@@ @  .o",
"OX  @   @  .o+ .ooooooooooooooooXX+OX  @   @  .o",
"OX         .o+ .ooooooooooooooooXX+OX         .o",
"OX         .o+ .ooooooooooooooooXX+OX         .o",
"OX..........o+ .ooooooooooooooooXX+OX..........o",
"Ooooooooooooo+ .XXXXXXXXXXXXXXXXXX+Ooooooooooooo",
"++++++++++++++ OOOOOOOOOOOOOOOOOOO++++++++++++++"};
